<?xml version="1.0" encoding="UTF-8"?>
<!--
  Anchor icon by SHAKA FAHMI, via The Noun Project.
  https://thenounproject.com/icon/anchor-8131986/
  Licensed under CC BY 3.0 — attribution in NOTICE.md + LICENSE.
  Attribution text and artist watermark stripped from the SVG for
  template-image rendering; attribution preserved in the source.
-->
<svg xmlns="http://www.w3.org/2000/svg" version="1.1" viewBox="0 0 100 100">
  <path d="m89.309 61.238-5.5391-10.254c-0.70703-1.3047-2.5781-1.3047-3.2852 0l-5.5391 10.254c-0.67187 1.2422 0.23047 2.7539 1.6406 2.7539h2.0312c-2.2422 12.215-12.152 21.766-24.535 23.52v-46.254h14.996c2.0156 0 3.6484-1.6328 3.6484-3.6484s-1.6328-3.6484-3.6484-3.6484h-14.996v-7.1406c4.2148-1.6406 7.2188-5.7344 7.2188-10.523 0-6.2305-5.0703-11.297-11.297-11.297-6.2305 0-11.297 5.0703-11.297 11.297 0 4.7891 3 8.8828 7.2148 10.523v7.1406h-14.996c-2.0156 0-3.6484 1.6328-3.6484 3.6484s1.6328 3.6484 3.6484 3.6484h14.996v46.254c-12.383-1.75-22.293-11.301-24.535-23.52h2.0312c1.4141 0 2.3164-1.5117 1.6406-2.7539l-5.5391-10.254c-0.70703-1.3047-2.5781-1.3047-3.2852 0l-5.5391 10.254c-0.67187 1.2422 0.23047 2.7539 1.6445 2.7539h1.7812c2.5547 17.512 17.672 31.008 35.879 31.008 18.211 0 33.324-13.492 35.883-31.008h1.7812c1.4141 0 2.3164-1.5117 1.6445-2.7539zm-39.309-40.809c-2.2773 0-4.1289-1.8516-4.1289-4.1289 0-2.2773 1.8516-4.1289 4.1289-4.1289s4.1289 1.8516 4.1289 4.1289c0 2.2773-1.8516 4.1289-4.1289 4.1289z"/>
</svg>
